Coordinates
version=1
nRows=21
nColumns=12
inDegrees=yes

Units are S.I. units (second, meters, Newtons, ...)
Angles are in degrees

endheader
time	SC_y	SC_z	SC_x	AC_y	AC_z	AC_x	GH_y	GH_z	GH_yy	EL_x	PS_y
       0.0              -47.14          13.34          4.211          34.72         -1.139          12.24          143.3           15.6          159.7          29.19          79.94
   0.01231              -47.13          13.34          4.217          34.72         -1.138          12.24          143.3           15.6          159.7           29.2          79.94
   0.02463              -47.13          13.34          4.223          34.72         -1.136          12.24          143.3           15.6          159.7          29.21          79.94
   0.03694              -47.13          13.34          4.229          34.72         -1.135          12.23          143.3          15.61          159.7          29.22          79.94
   0.04926              -47.12          13.34          4.236          34.73         -1.133          12.23          143.2          15.61          159.7          29.24          79.94
   0.06157              -47.12          13.34          4.244          34.73         -1.131          12.23          143.2          15.62          159.7          29.25          79.94
   0.07388              -47.11          13.34          4.252          34.73         -1.129          12.23          143.2          15.62          159.7          29.26          79.95
    0.0862              -47.11          13.35           4.26          34.74         -1.127          12.23          143.2          15.63          159.7          29.27          79.95
   0.09851               -47.1          13.35           4.27          34.74         -1.125          12.23          143.1          15.63          159.7          29.29          79.95
    0.1108               -47.1          13.35          4.279          34.75         -1.123          12.22          143.1          15.64          159.6          29.31          79.95
    0.1231              -47.09          13.35           4.29          34.75          -1.12          12.22          143.1          15.65          159.6          29.32          79.95
    0.1355              -47.08          13.35          4.301          34.76         -1.117          12.22          143.0          15.66          159.6          29.34          79.96
    0.1478              -47.08          13.35          4.314          34.76         -1.114          12.22          143.0          15.66          159.6          29.36          79.96
    0.1601              -47.07          13.35          4.327          34.77         -1.111          12.21          142.9          15.67          159.6          29.38          79.96
    0.1724              -47.06          13.35          4.341          34.78         -1.107          12.21          142.9          15.68          159.6          29.41          79.96
    0.1847              -47.05          13.35          4.357          34.78         -1.104          12.21          142.8          15.69          159.6          29.43          79.97
     0.197              -47.04          13.35          4.374          34.79         -1.099          12.21          142.8           15.7          159.6          29.46          79.97
    0.2093              -47.03          13.35          4.392           34.8         -1.095           12.2          142.7          15.71          159.6          29.49          79.97
    0.2217              -47.02          13.35          4.412          34.81          -1.09           12.2          142.7          15.73          159.6          29.52          79.98
     0.234               -47.0          13.35          4.434          34.82         -1.085          12.19          142.6          15.74          159.6          29.56          79.98
    0.2463              -46.99          13.35          4.458          34.83         -1.079          12.19          142.5          15.76          159.5          29.59          79.99
